<svg width="340" height="76" viewBox="0 0 340 76" fill="none" xmlns="http://www.w3.org/2000/svg">
<path d="M90.043 47.5581H127.347V74.5001" stroke="#66B848" stroke-width="5"/>
<path d="M45.4844 31.3759V3L91.0786 3.04604V50.046" stroke="#5671FF" stroke-width="5"/>
<path d="M3 55.8478V28.9058H48" stroke="#FF5252" stroke-width="5"/>
<path d="M23.896 42.004L23.452 44.08H25.036V45.28H23.2L22.72 47.5H21.412L21.892 45.28H19.54L19.06 47.5H17.752L18.232 45.28H16.372V44.08H18.484L18.928 42.004H17.08V40.804H19.18L19.648 38.62H20.956L20.488 40.804H22.84L23.308 38.62H24.616L24.148 40.804H25.744V42.004H23.896ZM22.588 42.004H20.236L19.792 44.08H22.144L22.588 42.004ZM27.9408 45.64C28.7088 44.976 29.3128 44.432 29.7528 44.008C30.2008 43.576 30.5728 43.128 30.8688 42.664C31.1648 42.2 31.3128 41.736 31.3128 41.272C31.3128 40.792 31.1968 40.416 30.9648 40.144C30.7408 39.872 30.3848 39.736 29.8968 39.736C29.4248 39.736 29.0568 39.888 28.7928 40.192C28.5368 40.488 28.4008 40.888 28.3848 41.392H27.0648C27.0888 40.48 27.3608 39.784 27.8808 39.304C28.4088 38.816 29.0768 38.572 29.8848 38.572C30.7568 38.572 31.4368 38.812 31.9248 39.292C32.4208 39.772 32.6688 40.412 32.6688 41.212C32.6688 41.788 32.5208 42.344 32.2248 42.88C31.9368 43.408 31.5888 43.884 31.1808 44.308C30.7808 44.724 30.2688 45.208 29.6448 45.76L29.1048 46.24H32.9088V47.38H27.0768V46.384L27.9408 45.64Z" fill="#FF0B0B"/>
<path d="M68.554 16.546L68.073 18.795H69.789V20.095H67.8L67.28 22.5H65.863L66.383 20.095H63.835L63.315 22.5H61.898L62.418 20.095H60.403V18.795H62.691L63.172 16.546H61.17V15.246H63.445L63.952 12.88H65.369L64.862 15.246H67.41L67.917 12.88H69.334L68.827 15.246H70.556V16.546H68.554ZM67.137 16.546H64.589L64.108 18.795H66.656L67.137 16.546ZM71.9219 14.375V13.023H74.6259V22.5H73.1309V14.375H71.9219Z" fill="#5671FF"/>
<path d="M108.302 61.2794L107.858 63.3554H109.442V64.5554H107.606L107.126 66.7754H105.818L106.298 64.5554H103.946L103.466 66.7754H102.158L102.638 64.5554H100.778V63.3554H102.89L103.334 61.2794H101.486V60.0794H103.586L104.054 57.8954H105.362L104.894 60.0794H107.246L107.714 57.8954H109.022L108.554 60.0794H110.15V61.2794H108.302ZM106.994 61.2794H104.642L104.198 63.3554H106.55L106.994 61.2794ZM111.567 60.1874C111.615 59.4434 111.899 58.8634 112.419 58.4474C112.947 58.0314 113.619 57.8234 114.435 57.8234C114.995 57.8234 115.479 57.9234 115.887 58.1234C116.295 58.3234 116.603 58.5954 116.811 58.9394C117.019 59.2834 117.123 59.6714 117.123 60.1034C117.123 60.5994 116.991 61.0234 116.727 61.3754C116.463 61.7274 116.147 61.9634 115.779 62.0834V62.1314C116.251 62.2754 116.619 62.5394 116.883 62.9234C117.147 63.2994 117.279 63.7834 117.279 64.3754C117.279 64.8474 117.171 65.2674 116.955 65.6354C116.739 66.0034 116.419 66.2954 115.995 66.5114C115.571 66.7194 115.063 66.8234 114.471 66.8234C113.607 66.8234 112.895 66.6034 112.335 66.1634C111.783 65.7154 111.487 65.0754 111.447 64.2434H112.767C112.799 64.6674 112.963 65.0154 113.259 65.2874C113.555 65.5514 113.955 65.6834 114.459 65.6834C114.947 65.6834 115.323 65.5514 115.587 65.2874C115.851 65.0154 115.983 64.6674 115.983 64.2434C115.983 63.6834 115.803 63.2874 115.443 63.0554C115.091 62.8154 114.547 62.6954 113.811 62.6954H113.499V61.5674H113.823C114.471 61.5594 114.963 61.4514 115.299 61.2434C115.643 61.0354 115.815 60.7074 115.815 60.2594C115.815 59.8754 115.691 59.5714 115.443 59.3474C115.195 59.1154 114.843 58.9994 114.387 58.9994C113.939 58.9994 113.591 59.1154 113.343 59.3474C113.095 59.5714 112.947 59.8514 112.899 60.1874H111.567Z" fill="#66B848"/>
<path d="M207.448 21.1L197.698 56H189.448L182.898 31.15L176.048 56L167.848 56.05L158.448 21.1H165.948L172.098 48.2L179.198 21.1H186.998L193.698 48.05L199.898 21.1H207.448ZM228.218 56.35C224.952 56.35 221.952 55.5833 219.218 54.05C216.485 52.5167 214.318 50.4 212.718 47.7C211.118 44.9667 210.318 41.8833 210.318 38.45C210.318 35.05 211.118 32 212.718 29.3C214.318 26.5667 216.485 24.4333 219.218 22.9C221.952 21.3667 224.952 20.6 228.218 20.6C231.518 20.6 234.518 21.3667 237.218 22.9C239.952 24.4333 242.102 26.5667 243.668 29.3C245.268 32 246.068 35.05 246.068 38.45C246.068 41.8833 245.268 44.9667 243.668 47.7C242.102 50.4 239.952 52.5167 237.218 54.05C234.485 55.5833 231.485 56.35 228.218 56.35ZM228.218 50.1C230.318 50.1 232.168 49.6333 233.768 48.7C235.368 47.7333 236.618 46.3667 237.518 44.6C238.418 42.8333 238.868 40.7833 238.868 38.45C238.868 36.1167 238.418 34.0833 237.518 32.35C236.618 30.5833 235.368 29.2333 233.768 28.3C232.168 27.3667 230.318 26.9 228.218 26.9C226.118 26.9 224.252 27.3667 222.618 28.3C221.018 29.2333 219.768 30.5833 218.868 32.35C217.968 34.0833 217.518 36.1167 217.518 38.45C217.518 40.7833 217.968 42.8333 218.868 44.6C219.768 46.3667 221.018 47.7333 222.618 48.7C224.252 49.6333 226.118 50.1 228.218 50.1ZM269.276 56L261.576 42.4H258.276V56H251.276V21.1H264.376C267.076 21.1 269.376 21.5833 271.276 22.55C273.176 23.4833 274.593 24.7667 275.526 26.4C276.493 28 276.976 29.8 276.976 31.8C276.976 34.1 276.31 36.1833 274.976 38.05C273.643 39.8833 271.66 41.15 269.026 41.85L277.376 56H269.276ZM258.276 37.15H264.126C266.026 37.15 267.443 36.7 268.376 35.8C269.31 34.8667 269.776 33.5833 269.776 31.95C269.776 30.35 269.31 29.1167 268.376 28.25C267.443 27.35 266.026 26.9 264.126 26.9H258.276V37.15ZM290.307 50.45H301.807V56H283.307V21.1H290.307V50.45ZM318.457 21.1C322.123 21.1 325.34 21.8167 328.107 23.25C330.907 24.6833 333.057 26.7333 334.557 29.4C336.09 32.0333 336.857 35.1 336.857 38.6C336.857 42.1 336.09 45.1667 334.557 47.8C333.057 50.4 330.907 52.4167 328.107 53.85C325.34 55.2833 322.123 56 318.457 56H306.257V21.1H318.457ZM318.207 50.05C321.873 50.05 324.707 49.05 326.707 47.05C328.707 45.05 329.707 42.2333 329.707 38.6C329.707 34.9667 328.707 32.1333 326.707 30.1C324.707 28.0333 321.873 27 318.207 27H313.257V50.05H318.207Z" fill="url(#paint0_linear)"/>
<defs>
<linearGradient id="paint0_linear" x1="157.348" y1="39.7931" x2="339.348" y2="39.7931" gradientUnits="userSpaceOnUse">
<stop stop-color="#FF5252"/>
<stop offset="0.557292" stop-color="#5671FF"/>
<stop offset="1" stop-color="#66B848"/>
</linearGradient>
</defs>
</svg>
